<?xml version="1.0" standalone="no"?>
<!DOCTYPE svg PUBLIC "-//W3C//DTD SVG 20010904//EN"
 "http://www.w3.org/TR/2001/REC-SVG-20010904/DTD/svg10.dtd">
<svg version="1.0" xmlns="http://www.w3.org/2000/svg"
 width="400.000000pt" height="400.000000pt" viewBox="0 0 400.000000 400.000000"
 preserveAspectRatio="xMidYMid meet">
<metadata>
Created by potrace 1.14, written by Peter Selinger 2001-2017
</metadata>
<g transform="translate(0.000000,400.000000) scale(0.100000,-0.100000)"
fill="#000000" stroke="none">
<path d="M1748 3578 l-45 -93 310 -3 c171 -1 312 -1 314 1 2 2 -16 45 -38 95
l-42 92 -227 0 -227 0 -45 -92z"/>
<path d="M1532 3333 l3 -58 483 -3 482 -2 0 60 0 60 -485 0 -486 0 3 -57z"/>
<path d="M1537 3133 c-4 -3 -7 -28 -7 -55 l0 -48 485 0 485 0 0 55 0 55 -478
0 c-263 0 -482 -3 -485 -7z"/>
<path d="M1536 2922 c-2 -4 -4 -104 -3 -222 1 -348 -31 -448 -253 -790 -121
-186 -203 -346 -232 -455 -18 -67 -22 -107 -22 -245 0 -152 2 -172 27 -254
110 -356 360 -607 704 -706 342 -99 729 8 978 271 l50 53 -45 -40 c-103 -91
-243 -165 -385 -204 -111 -31 -368 -39 -482 -16 -226 46 -420 149 -557 297
-71 76 -109 132 -151 222 -57 119 -77 213 -78 362 -1 220 36 320 213 574 151
217 202 304 249 424 53 137 70 237 78 454 l6 183 404 0 c221 0 403 -1 404 -2
0 -2 4 -86 8 -188 6 -117 15 -209 26 -250 19 -73 79 -208 127 -285 37 -58 188
-265 194 -265 3 0 -12 26 -33 58 -76 118 -164 279 -194 356 -54 141 -63 199
-63 442 l-1 221 -179 7 c-246 8 -784 8 -790 -2z"/>
<path d="M1960 2475 l-55 -23 -3 -56 c-3 -51 0 -59 26 -86 59 -59 105 -48 167
39 l29 42 -54 54 -55 54 -55 -24z m87 -101 c-3 -31 -8 -58 -11 -61 -8 -9 -73
36 -90 62 -29 44 -19 52 63 54 l44 1 -6 -56z"/>
<path d="M2323 2008 l-51 -10 -21 -64 c-44 -136 -12 -216 103 -254 48 -16 98
-8 146 24 52 34 73 84 68 157 -9 125 -96 177 -245 147z m118 -79 l51 -11 -7
-57 c-8 -69 -25 -97 -64 -106 -37 -8 -78 12 -109 54 l-22 31 27 50 c31 55 38
57 124 39z"/>
<path d="M1740 1623 c-26 -83 -20 -123 21 -157 24 -20 115 -49 156 -48 15 0
73 118 73 150 0 82 -54 122 -164 122 l-65 0 -21 -67z"/>
<path d="M2485 1370 c-38 -10 -164 -51 -279 -90 -115 -38 -238 -75 -274 -82
l-64 -12 38 -13 c22 -8 93 -28 159 -45 107 -29 135 -32 265 -33 142 0 146 1
210 31 70 33 268 201 253 214 -18 17 -112 41 -173 46 -46 3 -86 -2 -135 -16z"/>
</g>
</svg>
